<svg width="40" height="40" viewBox="0 0 40 40" fill="none" xmlns="http://www.w3.org/2000/svg">
<path d="M3 31.8524C3 27.8306 5.82887 24.4049 9.6734 23.7711L10.0197 23.714C13.0982 23.2064 16.2351 23.2064 19.3136 23.714L19.6599 23.7711C23.5045 24.4049 26.3333 27.8306 26.3333 31.8524C26.3333 33.5908 24.9692 35 23.2865 35H6.04688C4.36414 35 3 33.5908 3 31.8524Z" stroke="#ffffff" stroke-width="2.2"/>
<path d="M21.4723 11.5625C21.4723 15.1869 18.4253 18.125 14.6667 18.125C10.9081 18.125 7.86114 15.1869 7.86114 11.5625C7.86114 7.93813 10.9081 5 14.6667 5C18.4253 5 21.4723 7.93813 21.4723 11.5625Z" stroke="#ffffff" stroke-width="2.2"/>
<path d="M36.5065 13.1602L36.5715 13.0952M29.4286 20.2381L29.4935 20.1732M33 11.7077V11.6667M33 21.6667V21.6256M28.0411 16.6667H28M38 16.6667H37.959M29.4935 13.1602L29.4286 13.0952M36.5714 20.2381L36.5065 20.1732" stroke="#ffffff" stroke-width="2.2" stroke-linecap="round" stroke-linejoin="round"/>
</svg>
