<svg width="40" height="40" viewBox="0 0 40 40" fill="none" xmlns="http://www.w3.org/2000/svg">
<g clip-path="url(#clip0_3_3)">
<path d="M26.5065 38.7605C28.3185 39.0798 30.1815 39.0798 31.9935 38.7605C34.906 38.2473 37.252 36.2919 38.0601 33.7041L38.2315 33.1551C38.4096 32.5846 38.5 31.9944 38.5 31.4014C38.5 28.7865 36.1614 26.6667 33.2767 26.6667H25.2233C22.3386 26.6667 20 28.7865 20 31.4014C20 31.9944 20.0904 32.5846 20.2685 33.1551L20.4399 33.704C21.248 36.2919 23.594 38.2473 26.5065 38.7605ZM26.5065 38.7605C13.9196 36.4283 4.07167 26.5804 1.73948 13.9935M1.73948 13.9935C1.42017 12.1815 1.42017 10.3185 1.73948 8.50649C2.2527 5.59397 4.20808 3.24798 6.79595 2.43992L7.34487 2.26852C7.91545 2.09036 8.50559 2 9.09858 2C11.7135 2 13.8333 4.33856 13.8333 7.2233L13.8333 15.2767C13.8333 18.1614 11.7135 20.5 9.09858 20.5C8.50559 20.5 7.91544 20.4096 7.34487 20.2315L6.79595 20.0601C4.20807 19.252 2.2527 16.906 1.73948 13.9935Z" stroke="#ffffff" stroke-width="2.2"/>
<path fill-rule="evenodd" clip-rule="evenodd" d="M20.5 11C20.5 6.05 24.55 2 29.5 2C34.45 2 38.5 6.05 38.5 11C38.5 15.95 34.45 20 29.5 20C24.55 20 20.5 15.95 20.5 11ZM28.6994 15.758C28.6994 16.4439 29.2555 17 29.9414 17C30.6274 17 31.1834 16.444 31.1834 15.758V9.98001C31.1834 9.47601 31.1577 8.97201 31.1063 8.46801C31.0651 7.95373 30.988 7.4343 30.8749 6.90973L30.7729 6.39969C30.6409 5.73989 30.0059 5.30642 29.3434 5.42383C28.6599 5.54496 28.2097 6.20444 28.3458 6.8851L28.4217 7.26458C28.6069 8.13887 28.6994 9.03373 28.6994 9.94916V15.758Z" fill="#ffffff"/>
</g>
<defs>
<clipPath id="clip0_3_3">
<rect width="40" height="40" fill="white"/>
</clipPath>
</defs>
</svg>
