<svg width="40" height="40" viewBox="0 0 40 40" fill="none" xmlns="http://www.w3.org/2000/svg">
<path fill-rule="evenodd" clip-rule="evenodd" d="M20.6154 3.38462C20.6154 2.61991 19.9955 2 19.2308 2C18.4661 2 17.8462 2.61991 17.8462 3.38462V3.93823C17.0193 4.03529 16.2007 4.21329 15.4039 4.47158C11.2545 5.81663 8.01537 9.18922 6.86874 13.4211L5.7704 17.4748L4.90062 21.4138C4.82388 21.7613 4.72977 22.1451 4.63089 22.5484L4.63089 22.5484C4.42583 23.3847 4.20031 24.3045 4.06686 25.157C4.02277 25.4387 4 25.7268 4 26.0192C4 28.6413 5.83906 30.9081 8.40838 31.4315L9.08702 31.5698C10.2189 31.8003 11.3566 31.9919 12.4981 32.1446C12.509 32.1926 12.5203 32.2406 12.5321 32.2885L12.6834 32.904C13.2806 35.3328 15.1794 37.2275 17.6092 37.8087C18.6753 38.0638 19.7862 38.0638 20.8524 37.8087C23.2822 37.2275 25.1809 35.3328 25.7781 32.904L25.9295 32.2885C25.9412 32.2406 25.9525 32.1926 25.9634 32.1446C27.105 31.9919 28.2427 31.8003 29.3745 31.5698L30.0532 31.4315C32.6225 30.9081 34.4615 28.6413 34.4615 26.0192C34.4615 25.7268 34.4388 25.4387 34.3947 25.157C34.2612 24.3044 34.0357 23.3847 33.8306 22.5484L33.8305 22.5479C33.7547 22.2386 33.6817 21.9408 33.6171 21.662C32.8089 22.116 31.9353 22.4663 31.0145 22.6943C31.071 22.93 31.1273 23.1584 31.1825 23.382C31.369 24.1384 31.5421 24.8401 31.6588 25.5853C31.6808 25.7258 31.6923 25.8707 31.6923 26.0192C31.6923 27.3339 30.7712 28.4591 29.5004 28.718L28.8217 28.8563C27.4218 29.1415 26.0124 29.3636 24.5977 29.5226C21.2153 29.9029 17.8027 29.9226 14.4172 29.5816C12.8167 29.4204 11.2222 29.1786 9.63982 28.8563L8.96118 28.718C7.69034 28.4591 6.76923 27.3339 6.76923 26.0192C6.76923 25.8707 6.78078 25.7258 6.80278 25.5853C6.91941 24.8401 7.0925 24.1384 7.27908 23.382C7.38589 22.9491 7.49712 22.4981 7.60471 22.0109L8.46037 18.1358L9.54159 14.1453C10.4417 10.8233 12.9917 8.16458 16.2578 7.10587C17.1967 6.80151 18.174 6.6399 19.1527 6.62197C19.1785 6.62341 19.2046 6.62413 19.2308 6.62413C19.2657 6.62413 19.3004 6.62284 19.3347 6.62029C19.4909 6.62027 19.647 6.62391 19.8029 6.63121C20.442 5.68846 21.23 4.85407 22.1326 4.16244C21.6315 4.04914 21.1247 3.96685 20.6154 3.91542V3.38462ZM18.2534 35.1155C16.9067 34.7933 15.8334 33.7768 15.4296 32.4502C17.9602 32.6401 20.5014 32.6401 23.0319 32.4502C22.6281 33.7768 21.5549 34.7933 20.2081 35.1155C19.5655 35.2692 18.896 35.2692 18.2534 35.1155Z" fill="#ffffff"/>
<path fill-rule="evenodd" clip-rule="evenodd" d="M20 12.5C20 7.825 23.825 4 28.5 4C33.175 4 37 7.825 37 12.5C37 17.175 33.175 21 28.5 21C23.825 21 20 17.175 20 12.5ZM27.7439 11.5075V16.9937C27.7439 17.6415 28.2691 18.1667 28.9169 18.1667V18.1667C29.5647 18.1667 30.0899 17.6415 30.0899 16.9937V11.5367C30.0899 11.0607 30.0656 10.5847 30.0171 10.1087C29.9782 9.62296 29.9053 9.13239 29.7985 8.63696L29.7021 8.15526C29.5775 7.53211 28.9778 7.12272 28.3521 7.23361V7.23361C27.7066 7.34801 27.2814 7.97085 27.4099 8.6137L27.4816 8.9721C27.6565 9.79781 27.7439 10.643 27.7439 11.5075Z" fill="#ffffff"/>
</svg>
