<svg width="40" height="40" viewBox="0 0 40 40" fill="none" xmlns="http://www.w3.org/2000/svg">
<path fill-rule="evenodd" clip-rule="evenodd" d="M21 12.5C21 7.825 24.825 4 29.5 4C34.175 4 38 7.825 38 12.5C38 17.175 34.175 21 29.5 21C24.825 21 21 17.175 21 12.5ZM28.08 6.69064C28.0403 6.51495 27.8777 6.40234 27.7091 6.43385L26.2217 6.71188C25.9778 6.75746 25.8172 7.0056 25.8658 7.26171L26.074 8.35953C26.1493 8.78668 26.2105 9.2188 26.2576 9.65589C26.3047 10.083 26.3282 10.5152 26.3282 10.9523V17.2963C26.3282 17.5534 26.5259 17.7619 26.7697 17.7619H28.1612C28.405 17.7619 28.6027 17.5534 28.6027 17.2963V12.5145C28.6027 12.4423 28.8078 12.3254 28.8711 12.3529C29.0406 12.4225 29.2054 12.4572 29.3656 12.4572H30.5663C30.8395 12.4572 31.0985 12.3976 31.3433 12.2784C31.5976 12.1592 31.8189 12.0003 32.0073 11.8016C32.2051 11.593 32.3605 11.3546 32.4735 11.0864C32.5959 10.8182 32.6571 10.54 32.6571 10.2519V6.97748C32.6571 6.72031 32.4595 6.51183 32.2157 6.51183H30.8242C30.5803 6.51183 30.3827 6.72031 30.3827 6.97748V9.44356C30.3827 9.70073 30.185 9.90921 29.9412 9.90921H28.9276C28.8334 9.90921 28.7487 9.88437 28.6733 9.8347C28.598 9.78503 28.5556 9.70556 28.5462 9.59629C28.5274 9.25854 28.4897 8.90092 28.4332 8.52343C28.3767 8.14595 28.3154 7.79826 28.2495 7.48038C28.193 7.1625 28.1365 6.89925 28.08 6.69064Z" fill="#ffffff"/>
<path fill-rule="evenodd" clip-rule="evenodd" d="M21.6154 3.38462C21.6154 2.61991 20.9955 2 20.2308 2C19.4661 2 18.8462 2.61991 18.8462 3.38462V3.93823C18.0193 4.03529 17.2007 4.21329 16.4039 4.47158C12.2545 5.81663 9.01537 9.18922 7.86874 13.4211L6.7704 17.4748L5.90062 21.4138C5.82388 21.7613 5.72977 22.1451 5.63089 22.5484L5.63089 22.5484C5.42583 23.3847 5.20031 24.3045 5.06686 25.157C5.02277 25.4387 5 25.7268 5 26.0192C5 28.6413 6.83906 30.9081 9.40838 31.4315L10.087 31.5698C11.2189 31.8003 12.3566 31.9919 13.4981 32.1446C13.509 32.1926 13.5203 32.2406 13.5321 32.2885L13.6834 32.904C14.2806 35.3328 16.1794 37.2275 18.6092 37.8087C19.6753 38.0638 20.7862 38.0638 21.8524 37.8087C24.2822 37.2275 26.1809 35.3328 26.7781 32.904L26.9295 32.2885C26.9412 32.2406 26.9525 32.1926 26.9634 32.1446C28.105 31.9919 29.2427 31.8003 30.3745 31.5698L31.0532 31.4315C33.6225 30.9081 35.4615 28.6413 35.4615 26.0192C35.4615 25.7268 35.4388 25.4387 35.3947 25.157C35.2612 24.3044 35.0357 23.3847 34.8306 22.5484L34.8305 22.5479C34.7547 22.2386 34.6817 21.9408 34.6171 21.662C33.8089 22.116 32.9353 22.4663 32.0145 22.6943C32.071 22.93 32.1273 23.1584 32.1825 23.382C32.369 24.1384 32.5421 24.8401 32.6588 25.5853C32.6808 25.7258 32.6923 25.8707 32.6923 26.0192C32.6923 27.3339 31.7712 28.4591 30.5004 28.718L29.8217 28.8563C28.4218 29.1415 27.0124 29.3636 25.5977 29.5226C22.2153 29.9029 18.8027 29.9226 15.4172 29.5816C13.8167 29.4204 12.2222 29.1786 10.6398 28.8563L9.96118 28.718C8.69034 28.4591 7.76923 27.3339 7.76923 26.0192C7.76923 25.8707 7.78078 25.7258 7.80278 25.5853C7.91941 24.8401 8.0925 24.1384 8.27908 23.382C8.38589 22.9491 8.49712 22.4981 8.60471 22.0109L9.46037 18.1358L10.5416 14.1453C11.4417 10.8233 13.9917 8.16458 17.2578 7.10587C18.1967 6.80151 19.174 6.6399 20.1527 6.62197C20.1785 6.62341 20.2046 6.62413 20.2308 6.62413C20.2657 6.62413 20.3004 6.62284 20.3347 6.62029C20.4909 6.62027 20.647 6.62391 20.8029 6.63121C21.442 5.68846 22.23 4.85407 23.1326 4.16244C22.6315 4.04914 22.1247 3.96685 21.6154 3.91542V3.38462ZM19.2534 35.1155C17.9067 34.7933 16.8334 33.7768 16.4296 32.4502C18.9602 32.6401 21.5014 32.6401 24.0319 32.4502C23.6281 33.7768 22.5549 34.7933 21.2081 35.1155C20.5655 35.2692 19.896 35.2692 19.2534 35.1155Z" fill="#ffffff"/>
</svg>
