<svg width="40" height="40" viewBox="0 0 40 40" fill="none" xmlns="http://www.w3.org/2000/svg">
<g clip-path="url(#clip0_3_7)">
<path d="M23.8683 17.6293C25.2502 18.5136 25.2502 20.7245 23.8683 21.6088L19.2045 24.5935C17.8226 25.4779 16.0952 24.3724 16.0952 22.6037L16.0952 16.6344C16.0952 14.8657 17.8226 13.7602 19.2045 14.6446L23.8683 17.6293Z" stroke="#ffffff" stroke-width="2.2"/>
<path fill-rule="evenodd" clip-rule="evenodd" d="M34.0531 6.6496C34.9062 6.94919 35.4762 7.75595 35.4762 8.66256V21.925C35.4762 25.6318 34.1332 29.1701 31.7614 31.9115C30.5687 33.292 29.0598 34.367 27.4571 35.2365L20.5117 39L13.5546 35.2345C11.95 34.3651 10.4391 33.292 9.24443 31.9096C6.87073 29.1682 5.52381 25.6279 5.52381 21.9172V8.66256C5.52381 7.75595 6.09381 6.94919 6.94686 6.6496L19.7953 2.12043C20.2521 1.95986 20.7499 1.95986 21.2047 2.12043L34.0531 6.6496Z" stroke="#ffffff" stroke-width="2.2" stroke-linecap="round" stroke-linejoin="round"/>
</g>
<defs>
<clipPath id="clip0_3_7">
<rect width="40" height="40" fill="white"/>
</clipPath>
</defs>
</svg>
